<?xml version="1.0" encoding="UTF-8"?>
<!DOCTYPE svg PUBLIC "-//W3C//DTD SVG 1.0//EN" "http://www.w3.org/TR/2001/REC-SVG-20010904/DTD/svg10.dtd">
<!-- Creator: CorelDRAW 2019 (64-Bit) -->
<svg xmlns="http://www.w3.org/2000/svg" xml:space="preserve" width="5.32811in" height="5.32811in" version="1.0" style="shape-rendering:geometricPrecision; text-rendering:geometricPrecision; image-rendering:optimizeQuality; fill-rule:evenodd; clip-rule:evenodd"
viewBox="0 0 5328.11 5328.11"
 xmlns:xlink="http://www.w3.org/1999/xlink"
 enable-background="new 0 0 24 24">
 <defs>
  <style type="text/css">
   <![CDATA[
    .fil0 {fill:#FEFEFE}
   ]]>
  </style>
 </defs>
 <g id="Layer_x0020_1">
  <metadata id="CorelCorpID_0Corel-Layer"/>
  <path class="fil0" d="M35.39 2633.23c0,441.07 39.33,675.82 183.4,1079.59 12.2,34.19 23.07,51.99 39.19,84.02 17.35,34.47 24.19,57.8 40.79,92.7 84.87,178.57 233.94,409.99 370.68,553.46 27.02,28.34 35.25,44.91 61.41,72.07 45.73,47.52 87.01,86.59 133.69,133.28 89.03,89.06 187.75,169.32 294.22,239.74 108.02,71.45 210.89,136.96 327.85,195.83 79.63,40.07 320.18,147.16 407.33,147.16 73.17,0 123.22,-66.74 123.22,-143.76l0 -482.61c-61.78,1.38 -99.69,20.54 -174.56,20.54 -317.33,0 -581.53,-16.46 -715.93,-331.43 -64.37,-150.87 -151.07,-298.8 -292.47,-385.23 -40.61,-24.83 -95.89,-69.19 -100.57,-125.33 130.93,-87.67 335.85,34.25 428.99,125.49 124.56,122.02 220.17,416.2 512.79,402.69 125.16,-5.78 219.15,-2.66 318.96,-58.1 60.62,-33.67 29.8,-139.91 116.89,-273.3 23.08,-35.36 58.84,-51.55 70.2,-94.09 -76.68,-6.38 -182.24,-26.63 -255.98,-41.81 -273.12,-56.2 -508.41,-174.61 -685.57,-382.32 -73.8,-86.52 -122.23,-189.92 -161.13,-300.94 -134.7,-384.4 -132.83,-838.74 102.33,-1178.9 86.69,-125.4 79.31,-54.81 43,-208.88 -39.37,-167.09 0.24,-587.7 84.56,-587.7 151.78,0 256.6,50.14 381.4,101.2 180.48,73.85 283.27,183.27 349.38,169.05 156.19,-33.58 294.2,-76.51 460.33,-75.15 77.89,0.64 121.03,-15.07 205.4,-10.33 183.86,10.35 380.61,30.43 558.74,78.54 40.76,11.01 45.17,18.55 76,2.62 127.49,-65.91 136.43,-100.14 346.58,-188.18 131.88,-55.25 168.81,-77.75 353.52,-77.75 38.3,164.42 82.15,136.29 82.15,441.54 0,53.23 -5.91,89.95 -16.25,137.77 -7.44,34.41 -33.9,98.28 -31.45,117.34 4.93,38.41 454.68,437.98 177.35,1271.02 -101.09,303.67 -321.62,503.92 -612.23,619.96 -141.14,56.35 -344.91,109.4 -503.17,112.92 67.17,100.3 116.39,106.47 151.59,259.14 56.63,245.67 -9.82,836.78 33.62,993.2 17.02,61.28 65.75,92.8 133.11,92.8 66.71,0 321.65,-114.85 380.07,-143.6 85.82,-42.24 178.38,-88.24 255.11,-145.35l225.99 -164.2c98.64,-78.59 186.94,-167.48 276.22,-257.72 27.44,-27.73 34.73,-44.08 61.41,-72.09 145.2,-152.42 280.58,-363.62 372.45,-551.68 154.23,-315.71 266.74,-694.28 266.74,-1057.85 0,-349.91 -24.32,-692.82 -152.54,-1007.77 -62.51,-153.57 -123.79,-289.2 -203.61,-433.02l-126.39 -191.93c-90.74,-128.63 -184.04,-240.18 -295.29,-351.61 -240.41,-240.79 -545.2,-440.69 -860.59,-566.69 -41.74,-16.67 -82.41,-31.65 -118.94,-45.36 -448.67,-168.35 -1019.67,-186.93 -1487.31,-73.25 -247.37,60.13 -463.07,152.44 -684.67,270.28 -199.39,106.02 -391.47,256.04 -550.19,415.02 -156.76,157.01 -306.23,342.89 -418.02,536.93 -39.52,68.6 -72.31,133.68 -109.95,208.36 -125.04,248.07 -249.84,666.13 -249.84,1033.68z"/>
 </g>
</svg>
