<?xml version="1.0" encoding="UTF-8"?>
<!DOCTYPE svg PUBLIC "-//W3C//DTD SVG 1.0//EN" "http://www.w3.org/TR/2001/REC-SVG-20010904/DTD/svg10.dtd">
<!-- Creator: CorelDRAW 2019 (64-Bit) -->
<svg xmlns="http://www.w3.org/2000/svg" xml:space="preserve" width="5.32811in" height="5.32811in" version="1.0" style="shape-rendering:geometricPrecision; text-rendering:geometricPrecision; image-rendering:optimizeQuality; fill-rule:evenodd; clip-rule:evenodd"
viewBox="0 0 5328.11 5328.11"
 xmlns:xlink="http://www.w3.org/1999/xlink"
 enable-background="new 0 0 24 24">
 <defs>
  <style type="text/css">
   <![CDATA[
    .fil0 {fill:#FEFEFE}
   ]]>
  </style>
 </defs>
 <g id="Layer_x0020_1">
  <metadata id="CorelCorpID_0Corel-Layer"/>
  <path class="fil0" d="M4846.14 0l-4364.17 0c-266.19,0 -481.97,215.79 -481.97,481.97l0 4364.15c0,266.2 215.79,481.98 481.97,481.98l4364.15 0c266.2,0 481.98,-215.79 481.98,-481.98l0 -4364.15c0,-266.19 -215.79,-481.97 -481.97,-481.97zm-3197.39 4600.64c0,77.47 -62.8,140.26 -140.26,140.26l-597.06 -0c-77.46,0 -140.26,-62.79 -140.26,-140.26l0 -2502.83c0,-77.46 62.79,-140.26 140.26,-140.26l597.05 0c77.47,0 140.26,62.79 140.26,140.26l0 2502.83zm-438.79 -2879.02c-313.26,0 -567.21,-253.95 -567.21,-567.21 0,-313.26 253.95,-567.2 567.21,-567.2 313.26,0 567.2,253.95 567.2,567.21 0,313.26 -253.94,567.2 -567.2,567.2zm3558.98 2890.31c0,71.22 -57.74,128.96 -128.96,128.96l-640.69 0c-71.22,0 -128.96,-57.74 -128.96,-128.96l0 -1173.97c0,-175.13 51.37,-767.43 -457.67,-767.43 -394.85,0 -474.94,405.41 -491.02,587.35l0 1354.05c0,71.22 -57.73,128.96 -128.96,128.96l-619.65 0c-71.22,0 -128.96,-57.74 -128.96,-128.96l0 -2525.43c0,-71.22 57.74,-128.96 128.96,-128.96l619.65 0c71.22,0 128.96,57.74 128.96,128.96l0 218.36c146.41,-219.72 364,-389.31 827.28,-389.31 1025.89,0 1020.02,958.44 1020.02,1485.06l0 1211.32 0 0z"/>
 </g>
</svg>
