<?xml version="1.0" encoding="UTF-8"?>
<!DOCTYPE svg PUBLIC "-//W3C//DTD SVG 1.0//EN" "http://www.w3.org/TR/2001/REC-SVG-20010904/DTD/svg10.dtd">
<!-- Creator: CorelDRAW 2019 (64-Bit) -->
<svg xmlns="http://www.w3.org/2000/svg" xml:space="preserve" width="8.26772in" height="8.89169in" version="1.0" style="shape-rendering:geometricPrecision; text-rendering:geometricPrecision; image-rendering:optimizeQuality; fill-rule:evenodd; clip-rule:evenodd"
viewBox="0 0 8267.72 8891.69"
 xmlns:xlink="http://www.w3.org/1999/xlink">
 <defs>
  <style type="text/css">
   <![CDATA[
    .fil0 {fill:none}
    .fil3 {fill:#1C1C1A}
    .fil6 {fill:url(#id0)}
    .fil1 {fill:url(#id1)}
    .fil2 {fill:url(#id2)}
    .fil4 {fill:url(#id3)}
    .fil5 {fill:url(#id4);fill-rule:nonzero}
   ]]>
  </style>
  <linearGradient id="id0" gradientUnits="userSpaceOnUse" x1="3325.68" y1="1258.65" x2="4276.02" y2="1258.65">
   <stop offset="0" style="stop-opacity:1; stop-color:#914096"/>
   <stop offset="0.988235" style="stop-opacity:1; stop-color:#8DA6D5"/>
   <stop offset="1" style="stop-opacity:1; stop-color:#8DA6D5"/>
  </linearGradient>
  <linearGradient id="id1" gradientUnits="userSpaceOnUse" xlink:href="#id0" x1="2112.07" y1="4163.74" x2="6044.41" y2="4163.74">
  </linearGradient>
  <linearGradient id="id2" gradientUnits="userSpaceOnUse" x1="4953.63" y1="1733.25" x2="5163.74" y2="4039.6">
   <stop offset="0" style="stop-opacity:1; stop-color:#914096"/>
   <stop offset="0.988235" style="stop-opacity:1; stop-color:#ED398F"/>
   <stop offset="1" style="stop-opacity:1; stop-color:#ED398F"/>
  </linearGradient>
  <linearGradient id="id3" gradientUnits="userSpaceOnUse" x1="3671.67" y1="5332.81" x2="4759.46" y2="5332.84">
   <stop offset="0" style="stop-opacity:1; stop-color:#C5A13D"/>
   <stop offset="0.309804" style="stop-opacity:1; stop-color:#FFF212"/>
   <stop offset="1" style="stop-opacity:1; stop-color:#DC8A42"/>
  </linearGradient>
  <linearGradient id="id4" gradientUnits="userSpaceOnUse" xlink:href="#id2" x1="4174.78" y1="6306.33" x2="4490.82" y2="7886.95">
  </linearGradient>
 </defs>
 <g id="Layer_x0020_1">
  <metadata id="CorelCorpID_0Corel-Layer"/>
  <g id="_1308715814496">
   <path class="fil0" d="M6883.72 1103.63c854.3,788.25 1340.2,1897.72 1340.2,3060.13 0,2299.58 -1864.18,4163.76 -4163.76,4163.76 -2299.58,0 -4163.76,-1864.18 -4163.76,-4163.76 0,-2299.58 1864.18,-4163.76 4163.76,-4163.76 796.86,0 1576.99,228.67 2247.76,658.85"/>
   <path class="fil1" d="M2489.67 2510.6c7.39,63.37 13.75,131 17.95,200.67 4.19,69.67 6.33,162.71 6.33,278.81l0 3411.94 -462.6 0 0 -4476.54 445.7 0 1326.8 1777.61c-4.45,240.1 -7.8,480.71 -9.5,714.54l-1105.01 -1505.69c-2.11,-2.11 -7.39,-8.46 -15.84,-21.13 -95.06,-129.91 -162.65,-256.65 -203.84,-380.22zm1849.73 1178.7l1228.96 -1763.81 500.62 0 0 4476.54 -500.62 0 0 -3411.94c0,-29.56 3.17,-102.44 10.56,-218.62 7.39,-116.18 12.68,-203.84 13.74,-260.87 -41.19,84.49 -77.1,155.26 -109.85,213.34 -31.69,57.03 -60.2,103.51 -84.49,139.41l-1049.58 1526.49c-1.86,-231.15 -5.1,-465.26 -9.34,-700.55z"/>
   <path class="fil2" d="M3844.2 5234.7c-2.78,-80.14 10.15,-156.41 10.42,-242.26 1.7,-568.87 12.59,-1191.37 25.86,-1756.3 7.77,-330.54 12.68,-661.43 21.19,-991.81 3,-116.82 -27.92,-253.99 -24.64,-370.96 -1995.48,-451.7 -2054.65,-881.69 -919.83,-1054.75 1134.83,-173.06 6132.54,-3.96 4199.23,104.2l-2536.38 141.91c-1113.31,-66.02 -235.52,287.21 -369.41,747.62 4.74,143.71 7.77,288.38 11.07,431.94 20.63,895.8 43.78,1844.89 47.02,2740.59 0.4,110.47 13.02,178.78 10.41,249.83 -77.27,56.68 -399.52,61.59 -474.95,0z"/>
   <path class="fil3" d="M3795.67 6285.65l59.04 25.15 -96.54 317.06c-11.01,39.69 -90.69,316.15 -71.2,337.01 28.74,30.78 36.59,-70.67 53.7,-140.03l93.8 -337.91c15.5,-49.57 42.85,-121.01 52.3,-167.7l43.58 5.21c3.47,62.1 -72.89,383.04 -56.38,490.78l26.41 1.37c11.1,-70.85 17.07,-172.93 28.11,-251 11.06,-78.23 24.03,-158.54 37.1,-236.46 116.48,10.62 197.25,-0.26 310.88,-10.98 34.41,60.84 109.62,335.72 131.68,427.42 33.57,139.53 62.03,288.37 70.22,436.65 2.15,38.9 -3.17,41.11 21.52,51.59 43.73,-45.65 -43.3,-426.08 -58.97,-493.91 -30.48,-131.98 -121.15,-399.97 -127.38,-434.23l54.28 -19.51c74.53,157.7 249.87,619.4 254.22,845.11 3.67,189.74 -88.39,301.86 -169.7,368.98 -231.99,191.53 -914.18,164.98 -911.11,-361.25 1.32,-226.56 179.94,-695.32 254.44,-853.35z"/>
   <path class="fil4" d="M3797.93 6240.81l43.02 -1345.58c199.19,45.14 281.72,45.81 481.63,-0.32l43.95 1345.84c-169,71.26 -400.23,71.45 -568.61,0.06z"/>
   <path class="fil5" d="M1509.55 6868.62l47.43 66.2c-47.86,-14.19 -159.43,-7.51 -334.69,20.02 -262.48,42.61 -436.08,94.27 -520.8,154.96 -39.15,28.05 -49.81,54.54 -31.96,79.45 8.16,11.39 22.73,21.95 43.72,31.7l0.76 1.07c1.53,2.13 0.52,4.48 -3.04,7.03 -13.53,9.69 -39.22,0.89 -77.08,-26.39 -37.85,-27.28 -64.94,-52.31 -81.26,-75.09 -34.17,-47.7 -25.27,-90.16 26.7,-127.39 90.41,-64.77 325.03,-122.98 703.85,-174.62 -47.45,-9.09 -80.44,-14.54 -98.97,-16.35 -125.13,-13.77 -324.07,-25.3 -596.8,-34.58 -56.7,-2.46 -93.51,-5.72 -110.42,-9.77 -16.9,-4.05 -31.6,-14.8 -44.1,-32.24 -12.5,-17.44 -21.57,-41.37 -27.2,-71.81 35.53,1.48 111.13,-39.22 226.81,-122.09 115.69,-82.88 215.76,-165.35 300.24,-247.42 -66.06,8.55 -205.28,38.26 -417.66,89.16 -212.39,50.89 -339.58,91.39 -381.58,121.48 -4.98,3.57 -7.93,6.22 -8.85,7.95l-70.38 -98.24c133,-33.89 311.61,-74.04 535.81,-120.47 224.2,-46.43 358.19,-72.94 401.95,-79.52 -46.41,-64.78 -104.49,-118.78 -174.23,-161.99 -69.74,-43.22 -125.52,-57.93 -167.35,-44.13 -2.64,0.82 -4.73,0.16 -6.26,-1.97 -4.08,-5.7 -1.5,-11.86 7.76,-18.49 1.43,-1.02 13.07,-5.06 34.96,-12.11 21.87,-7.06 48.16,-9.46 78.86,-7.21 30.7,2.25 58.32,10.73 82.87,25.46 39.23,24.69 77.2,62.65 113.93,113.91l97.16 135.62c15.3,21.35 23.85,40.81 25.66,58.37 1.81,17.56 -8.85,38.39 -31.98,62.5 -23.12,24.11 -81.26,73.03 -174.41,146.76 -93.14,73.73 -159.3,124.62 -198.45,152.67 -39.15,28.05 -66.36,46.46 -81.62,55.24 200.36,10.5 454.53,27.71 762.51,51.61 53.86,4.5 103.23,38.08 148.11,100.72zm-22.5 652.51c3.99,3.42 0.42,11.61 -10.7,24.57 -11.13,12.96 -29.7,23.84 -55.74,32.65 -26.04,8.81 -51.05,16.77 -75.04,23.87 -23.99,7.1 -53.75,13.87 -89.28,20.29 -35.53,6.43 -67.02,8.83 -94.47,7.19 -68.1,-5.38 -123.24,-26.19 -165.43,-62.41 -42.19,-36.22 -66.98,-76.26 -74.35,-120.1 -7.37,-43.84 8.06,-88.02 46.28,-132.53 58.19,-67.77 137.02,-109.17 236.48,-124.18 99.46,-15.02 182.41,6 248.85,63.05 29.9,25.67 47.11,54.02 51.65,85.03 4.53,31.02 -2.61,57.49 -21.44,79.41 -31.95,37.21 -75.23,51.98 -129.84,44.34 -54.61,-7.64 -105.83,-32.01 -153.67,-73.08 -27.91,-23.96 -45.36,-45.3 -52.37,-64.02 -41.72,23.05 -73.7,47.52 -95.95,73.44 -47.92,55.81 -48.3,103.96 -1.12,144.47 27.91,23.96 65.91,37.83 114.02,41.63 48.11,3.8 94.18,1.22 138.21,-7.71 44.04,-8.94 101.02,-27.24 170.95,-54.92 6.65,-2.37 10.97,-2.7 12.96,-0.99zm-38.04 -169.44c16.54,-19.27 15.51,-36.89 -3.09,-52.86 -25.91,-22.25 -68.5,-31.12 -127.78,-26.61 -59.28,4.51 -97.47,16.73 -114.59,36.66 -11.41,13.29 -4.49,30.77 20.76,52.45 25.25,21.68 62.21,32.06 110.89,31.15 48.68,-0.91 86.62,-14.5 113.81,-40.79zm710.68 139.03c-52.22,-0.66 -135.67,33.43 -250.32,102.27l108.04 77 0.31 1.83c-2.54,3.57 -10.91,7.01 -25.11,10.33 -14.2,3.33 -24.15,2.96 -29.85,-1.11l-92 -65.56c-155.95,99.63 -248.16,169.41 -276.62,209.34 -19.31,27.1 -20.41,46.75 -3.29,58.94 24.96,17.79 69.44,17.23 133.46,-1.67 14.45,-3.68 35.97,-12 64.57,-24.96 70.41,-29.39 106.33,-43.58 107.76,-42.57 4.28,3.05 2.35,10.28 -5.78,21.69 -20.03,26.59 -87.23,58.27 -201.61,95.04 -37.56,11.95 -77.76,19.32 -120.61,22.12 -42.86,2.79 -75.34,-3.69 -97.44,-19.44 -40.65,-28.97 -40.65,-71.98 0.02,-129.03 34.05,-47.78 84.59,-94.56 151.63,-140.34l0.76 -1.07c-31.34,15.3 -56.14,25.59 -74.41,30.85 -18.27,5.26 -28.12,7.38 -29.54,6.37 -2.85,-2.03 -1.1,-7.5 5.25,-16.42 6.35,-8.91 21.46,-19.92 45.31,-33.03 23.86,-13.11 55.6,-29.74 95.23,-49.89 39.63,-20.15 74.2,-39.6 103.7,-58.37l-71.67 -51.08c-2.14,-1.52 -2.07,-3.89 0.22,-7.1 2.29,-3.21 8.9,-6.83 19.84,-10.86 10.94,-4.03 17.83,-5.03 20.69,-3l81.3 57.94c139.27,-86.78 235.3,-111.37 288.07,-73.76 30.67,21.85 48.04,33.7 52.11,35.53zm390.76 665.09c4.72,-3.5 8.25,-4.65 10.59,-3.46 4.69,2.38 4.06,9.42 -1.88,21.14 -19.01,37.49 -49.79,60.91 -92.34,70.26 -42.54,9.36 -76.9,7.4 -103.06,-5.87 -26.17,-13.27 -44.86,-32.07 -56.08,-56.42 -56.24,41.2 -111.81,68 -166.71,80.42 -54.9,12.41 -112.81,3.18 -173.73,-27.72 -39.05,-19.8 -64.84,-47.85 -77.36,-84.15 -12.52,-36.3 -6.41,-78.85 18.35,-127.67 24.76,-48.81 61.43,-93.55 110.03,-134.2 48.6,-40.65 104.86,-68.33 168.78,-83.05 63.92,-14.72 123.61,-8.02 179.06,20.11 92.94,47.13 114.46,119.91 64.56,218.31 -19.01,37.49 -47.22,72.78 -84.61,105.85 3.4,22.35 16.03,39.06 37.9,50.15 40.61,20.59 96.11,6.03 166.5,-43.7zm-158.81 -171.85c17.87,-42.98 9.62,-73.19 -24.74,-90.61 -53.89,-27.33 -133.15,-1.74 -237.77,76.78 -57.43,43.54 -98.03,88.74 -121.79,135.6 -23.76,46.86 -15.93,81.76 23.49,104.7 33.59,17.03 73.64,15 120.17,-6.07 46.53,-21.08 90.45,-48.15 131.76,-81.2 -15.07,-36.12 -13.89,-71.36 3.54,-105.72 10.7,-21.09 24.87,-35.01 42.54,-41.76 17.67,-6.75 36.26,-5.18 55.78,4.72l7.03 3.57zm800.94 408.08c-51.86,51.83 -103.93,70.41 -156.2,55.72 -43.84,-12.32 -67.98,-44.57 -72.41,-96.76 -104.38,89.83 -174.17,140.72 -209.37,152.66 -49.13,16.21 -93.5,18.76 -133.13,7.62 -20.23,-5.69 -34.1,-20.27 -41.6,-43.76 -7.5,-23.48 -6.45,-52.3 3.14,-86.44 9.59,-34.14 34.53,-82.4 74.79,-144.76 78.98,-122.44 148.64,-187.46 209,-195.06 29.22,-3.62 66.17,0.85 110.85,13.41 3.37,0.94 4.58,3.11 3.63,6.48 -0.95,3.37 -4.66,6.88 -11.14,10.51 -39.61,17.98 -90.56,65.74 -152.83,143.3 -62.27,77.56 -98.56,134.67 -108.87,171.35 -10.31,36.67 -1.55,58.92 26.27,66.74 23.61,6.63 57.58,-9.06 101.92,-47.09 44.34,-38.02 84.99,-82.32 121.94,-132.88 1.24,-20.57 6.06,-45.83 14.46,-75.76 8.41,-29.93 24.2,-57.78 47.36,-83.57 23.17,-25.78 47.81,-35 73.94,-27.65 26.14,7.34 33.76,30.41 22.86,69.19 -12.8,45.52 -39.73,87.98 -80.82,127.38 -11.38,11.35 -19.04,19.21 -23,23.56 -6.5,26.37 -5.65,48.44 2.55,66.21 8.2,17.76 21.99,29.37 41.38,34.82 30.35,8.53 63.92,-2.5 100.72,-33.1 14.38,-12.33 27.3,-23.48 38.74,-33.46 11.44,-9.98 17.59,-14.84 18.43,-14.61 3.37,0.95 2.57,10.27 -2.4,27.98 -4.98,17.7 -11.72,30.37 -20.22,37.98zm655.44 1c5.22,0.64 6.79,9.44 4.71,26.38 -2.08,16.95 -11.51,36.31 -28.3,58.07 -16.78,21.77 -33.19,42.25 -49.22,61.46 -16.03,19.21 -37.05,41.34 -63.06,66.38 -26.01,25.05 -50.89,44.49 -74.65,58.35 -59.66,33.27 -117.09,46.52 -172.28,39.75 -55.2,-6.77 -98.02,-26.35 -128.45,-58.76 -30.43,-32.41 -42.08,-77.73 -34.94,-135.96 10.87,-88.66 53.54,-166.8 128,-234.43 74.46,-67.63 155.15,-96.12 242.07,-85.46 39.11,4.8 69.15,18.85 90.12,42.15 20.96,23.3 29.69,49.3 26.17,77.98 -5.97,48.68 -33.8,84.97 -83.49,108.87 -49.69,23.91 -105.83,32.02 -168.41,24.35 -36.5,-4.47 -62.86,-12.56 -79.07,-24.25 -21.95,42.31 -35,80.41 -39.16,114.31 -8.95,73.02 17.43,113.3 79.14,120.87 36.51,4.48 75.83,-5.04 117.97,-28.55 42.15,-23.51 79.07,-51.19 110.76,-83.03 31.7,-31.85 68.98,-78.67 111.84,-140.46 4.22,-5.66 7.64,-8.33 10.24,-8.01zm-125.57 -119.94c3.09,-25.21 -7.54,-39.3 -31.87,-42.29 -33.9,-4.15 -74.27,12.07 -121.11,48.68 -46.83,36.61 -71.85,67.95 -75.05,94.03 -2.13,17.38 13.31,28.1 46.34,32.15 33.03,4.05 69.56,-7.8 109.57,-35.54 40.02,-27.74 64.06,-60.08 72.11,-97.03zm574.43 -77.85l67 -0.69 13.13 -0.39c-12.84,10.02 -30.6,39.02 -53.26,87.01 -22.67,47.98 -39.55,84.19 -50.65,108.61 -11.1,24.43 -23.26,57.2 -36.5,98.33 -13.23,41.13 -19.47,74.39 -18.71,99.78 0.76,25.38 9.89,37.81 27.39,37.3 11.35,-1.22 27.09,-9.79 47.2,-25.72 20.11,-15.93 36.7,-32.63 49.76,-50.1 13.06,-17.47 27.29,-39.8 42.69,-66.98 15.4,-27.19 28.71,-50.8 39.94,-70.84 11.23,-20.05 17.72,-30.09 19.47,-30.15 6.13,-0.18 9.43,7.82 9.91,24.02 0.48,16.19 -3.43,31.87 -11.74,47 -35.79,63.27 -65.44,111.9 -88.96,145.89 -23.52,33.99 -52.16,65.29 -85.91,93.89 -33.76,28.6 -64.64,43.32 -92.65,44.15 -49.89,1.48 -75.93,-34.54 -78.12,-108.07 -1.49,-49.9 6.46,-106.64 23.85,-170.24 17.38,-63.59 44.02,-125.28 79.91,-185.04 -29.91,25.42 -60.18,38.59 -90.82,39.5 -9.63,0.28 -19.76,-1.6 -30.39,-5.67 -58.5,124.39 -90.16,186.67 -94.97,186.81 -4.81,0.15 -7.44,-7 -7.87,-21.45 -0.43,-14.44 4.44,-34.74 14.61,-60.88 10.17,-26.15 21.25,-51.23 33.24,-75.24 11.99,-24.01 18.38,-37.34 19.18,-39.99 -31.98,-14.82 -48.49,-39.74 -49.54,-74.75 -0.52,-17.51 4.48,-33.43 15.01,-47.76 10.52,-14.33 25.41,-21.78 44.67,-22.36 19.26,-0.57 35.19,5.09 47.81,16.98 -1.59,5.3 -2.23,13.21 -1.92,23.71 0.7,23.63 9.8,41.98 27.26,55.04 17.48,13.06 38.47,19.22 62.98,18.5 7,-0.21 12.24,-0.8 15.71,-1.78 29.34,-44.68 59.76,-67.48 91.28,-68.42zm801.73 148.65c-44.87,119.51 -89.7,205.19 -134.51,257.03 -44.81,51.84 -108.99,85.42 -192.54,100.73 -48.24,8.84 -90.42,7 -126.55,-5.52 -36.13,-12.52 -57.51,-36.87 -64.14,-73.04 -3.79,-20.68 -1.23,-40.73 7.67,-60.17 8.9,-19.44 23.91,-31.09 45.01,-34.96 21.1,-3.87 36.09,1.4 44.96,15.8 -13.36,19.36 -18.07,39.81 -14.13,61.35 7.9,43.07 35.96,60.19 84.2,51.34 28.43,-5.21 51.37,-19.66 68.85,-43.34 17.47,-23.68 24.04,-47.36 19.69,-71.05 -4.34,-23.69 -13.34,-43.63 -26.99,-59.82 -13.65,-16.19 -29.06,-29.84 -46.23,-40.94 -17.17,-11.1 -34.34,-22.2 -51.51,-33.3 -41.47,-27.12 -66.2,-62.43 -74.17,-105.93 -7.97,-43.5 1.9,-83.15 29.61,-118.94 27.72,-35.8 70.43,-58.98 128.14,-69.56 36.18,-6.63 67.94,-5.78 95.29,2.56 27.35,8.34 43.51,26.08 48.48,53.21 4.97,27.13 1.09,52.11 -11.64,74.92 -12.74,22.81 -33.1,36.78 -61.09,41.91 -28,5.13 -44.36,-5.22 -49.1,-31.06 -1.11,-6.03 7.14,-16.89 24.74,-32.58 17.6,-15.69 25.22,-29.99 22.85,-42.92 -2.37,-12.92 -9.53,-21.62 -21.48,-26.11 -11.95,-4.48 -27.83,-4.91 -47.65,-1.28 -19.81,3.63 -37.71,14.04 -53.7,31.21 -16,17.18 -21.94,36.96 -17.83,59.36 4.11,22.39 17.45,41.76 40.04,58.1 22.58,16.34 46.33,29.35 71.25,39.02 24.92,9.68 49.11,25.05 72.56,46.13 23.45,21.07 37.66,45.18 42.63,72.31 4.97,27.13 3.19,52.61 -5.35,76.43 -8.54,23.82 -20.24,43.78 -35.1,59.85 44.45,-29.52 86.22,-90.59 125.34,-183.23 3.9,-7.84 10.34,-23.71 19.31,-47.61 20.2,-59.79 32.02,-90 35.47,-90.64 5.17,-0.94 9.21,6.55 12.13,22.48 2.92,15.94 1.42,32.02 -4.51,48.24zm920.35 -959.36l-172 69.15c-7.98,3.61 -12.75,63.19 -14.3,178.75 -1.56,115.56 1.51,225.42 9.22,329.58 7.7,104.16 20.48,175.99 38.35,215.49 17.87,39.5 39.36,53.56 64.5,42.19 25.13,-11.37 45.12,-51.64 59.96,-120.83 1.82,-6.59 4.73,-10.79 8.72,-12.59 3.99,-1.8 7.61,0.89 10.85,8.07 3.25,7.18 3.81,22.78 1.71,46.8 -2.11,24.02 -6.98,50.97 -14.61,80.85 -7.63,29.88 -21.53,59.72 -41.7,89.5 -20.17,29.78 -45.01,51.35 -74.54,64.7 -43.89,19.85 -79.54,-0.55 -106.97,-61.19 -33.92,-75 -53.76,-219.81 -59.52,-434.42 -3.12,-151.41 -0.89,-279.29 6.7,-383.64l-15.56 7.04 -124.36 53.36c-68.62,31.04 -124.5,66.88 -167.62,107.53 -23.6,22.21 -39.33,46.39 -47.21,72.54 -7.87,26.15 -5.86,52.39 6.05,78.72l32.31 45.94c3.61,7.98 1.43,13.78 -6.55,17.39 -10.37,4.69 -23.35,-1.69 -38.94,-19.15 -15.58,-17.46 -26.81,-33.77 -33.66,-48.93 -16.96,-37.5 -22.62,-73.39 -16.98,-107.66 5.65,-34.27 20.56,-65.04 44.74,-92.32 45.9,-51.52 103.56,-92.97 172.98,-124.37 69.42,-31.4 149.91,-62.75 241.46,-94.07 91.56,-31.31 173.25,-63.22 245.06,-95.69 71.81,-32.48 113.43,-64.76 124.87,-96.85 4.92,4.5 8.65,9.55 11.17,15.13 11.91,26.33 4.63,54.85 -21.85,85.57 -26.48,30.72 -67.24,58.52 -122.3,83.43zm679.22 129.03c-0.61,-5.84 0.19,-9.47 2.41,-10.89 4.43,-2.82 10.18,1.3 17.24,12.38 22.6,35.44 27.1,73.86 13.5,115.24 -13.59,41.39 -32.76,69.96 -57.5,85.74 -24.74,15.77 -50.44,22.3 -77.11,19.56 6.85,69.38 1.65,130.85 -15.6,184.43 -17.25,53.58 -54.67,98.73 -112.27,135.45 -36.92,23.54 -74.19,31.47 -111.8,23.78 -37.62,-7.69 -71.14,-34.61 -100.57,-80.76 -29.43,-46.15 -49.27,-100.48 -59.54,-163 -10.27,-62.52 -5.47,-125.04 14.39,-187.56 19.86,-62.52 56,-110.49 108.43,-143.91 87.87,-56.03 161.46,-37.52 220.79,55.52 22.6,35.44 38.62,77.68 48.07,126.7 20.96,8.44 41.78,6.07 62.46,-7.11 38.4,-24.48 54.09,-79.67 47.1,-165.57zm-228.76 49.27c-27.91,-37.26 -58.11,-45.52 -90.59,-24.81 -50.95,32.48 -69.24,113.74 -54.89,243.76 8.26,71.59 26.51,129.54 54.76,173.84 28.25,44.3 62.28,55.32 102.09,33.06 31.75,-20.24 50.39,-55.76 55.92,-106.54 5.53,-50.78 4.58,-102.36 -2.85,-154.74 -38.76,-5.41 -68.5,-24.35 -89.22,-56.84 -12.71,-19.94 -17.48,-39.22 -14.31,-57.87 3.17,-18.64 13.99,-33.85 32.45,-45.62l6.64 -4.23zm524.2 -619.59l46.67 -42.42c9.53,-9.04 15.27,-15.08 17.21,-18.12 -6.35,28.94 7.97,95.3 42.96,199.07 35,103.77 67.56,171.55 97.67,203.33 18.07,19.07 33.47,22.58 46.18,10.54 8.27,-7.83 14.43,-23.93 18.49,-48.28 4.06,-24.36 5,-47.87 2.83,-70.54 -2.18,-22.67 -6.43,-49.11 -12.74,-79.32 -6.31,-30.21 -11.81,-56.38 -16.48,-78.49 -4.67,-22.12 -6.37,-33.78 -5.09,-34.98 3.81,-3.61 11.44,0.61 22.89,12.69 11.44,12.07 18.79,26.83 22.04,44.26 45.87,206.28 42.43,334.41 -10.33,384.41 -35.59,33.73 -78.39,24.22 -128.39,-28.54 -15.66,-16.53 -29.45,-33.62 -41.37,-51.29 20.37,141.16 3.53,237.34 -50.5,288.55 -15.89,15.06 -35.09,20.58 -57.59,16.57 -22.5,-4.01 -46.1,-19.05 -70.8,-45.11 -24.7,-26.06 -56.29,-77.86 -94.78,-155.4 -38.49,-77.54 -62.76,-148.34 -72.8,-212.42 -2.68,-15.56 -1.42,-27.91 3.78,-37.06 5.2,-9.15 17.98,-23.37 38.31,-42.64l45.77 -43.37c4.59,36.67 15.13,82.18 31.64,136.51 40.57,126.84 80.13,210.6 118.68,251.28 22.89,24.15 43.07,27.95 60.56,11.39 17.48,-16.57 22.33,-53.14 14.56,-109.72 -7.77,-56.58 -23.28,-124.83 -46.53,-204.74 -23.25,-79.92 -35.96,-125.48 -38.14,-136.69 -11.42,-59.15 -6.32,-98.98 15.29,-119.45zm621.28 -459.13c3.25,-4.13 11.41,-1.05 24.49,9.24 13.07,10.29 24.78,28.7 35.11,55.22 10.33,26.52 17.91,46.97 22.74,61.37 4.83,14.39 12.03,38.16 21.59,71.32 9.56,33.16 14.56,59.38 14.98,78.66 0.43,19.28 0.14,43.01 -0.87,71.2 -1.81,47.61 -21.81,95.67 -60,144.18 -38.19,48.51 -78.02,73.99 -119.51,76.44 -41.49,2.45 -81.85,-11.76 -121.07,-42.64 -72.25,-56.87 -118.3,-134.64 -138.17,-233.3 -19.86,-98.66 -2.44,-182.74 52.27,-252.24 24.37,-30.96 51.96,-49.37 82.75,-55.22 30.8,-5.85 57.37,0.02 79.74,17.63 22.37,17.61 36.93,39.1 43.7,64.49 6.76,25.39 3.92,45.99 -8.54,61.81 -24.37,30.97 -49.29,36.43 -74.75,16.39 -8.26,-6.5 -9.4,-21.33 -3.43,-44.49 2.67,-9.05 2.38,-19.3 -0.86,-30.76 -3.23,-11.46 -11.05,-22.07 -23.43,-31.82 -17.89,-14.08 -34.42,-11.49 -49.59,7.78 -32.5,41.29 -34.79,105.79 -6.88,193.51 27.91,87.72 69.91,153.65 125.99,197.8 56.09,44.15 103.35,41.79 141.81,-7.07 53.62,-68.12 53.25,-175.96 -1.12,-323.52 -10.35,-29.32 -19.37,-53.98 -27.05,-73.95 -7.68,-19.98 -10.98,-30.65 -9.89,-32.03zm421.12 -602.05c103.17,183.9 136.16,308.08 98.96,372.56 -25.82,44.75 -64.52,52.24 -116.1,22.48 -59.92,-34.58 -131.46,-107.71 -214.63,-219.4 -21.94,-26.81 -38.21,-43.28 -48.83,-49.41 -15.17,-8.75 -26.69,-6.3 -34.57,7.35 -5.25,9.1 -8.81,27.52 -10.66,55.27 -1.85,27.74 1.77,57.39 10.87,88.92 9.1,31.54 23.28,61.72 42.55,90.53 19.27,28.81 36.46,52.89 51.59,72.23 15.13,19.35 34.5,41.39 58.13,66.15 23.63,24.76 42.5,45.5 56.6,62.23 14.1,16.74 30.94,35.3 50.52,55.69l-63.68 110.36c-40.52,-50.68 -107.18,-128.33 -199.99,-232.94 -92.81,-104.61 -164.14,-189.5 -214,-254.67 -49.85,-65.16 -89.8,-123.85 -119.82,-176.06 -30.03,-52.21 -50.48,-103.94 -61.34,-155.21 -10.86,-51.26 -5.46,-95.67 16.2,-133.21 21.67,-37.55 50.33,-46.03 85.98,-25.46 25.03,14.44 52.11,43.72 81.26,87.84 61.08,93.89 118.75,225.24 173,394.05 -5.94,-58.03 -6.58,-101.62 -1.89,-130.76 4.69,-29.15 13.37,-54.72 26.07,-76.72 24.95,-43.23 56.39,-53.91 94.31,-32.02 15.17,8.75 27.67,19.5 37.5,32.26 9.83,12.75 21.23,27.16 34.19,43.24 12.97,16.07 23.56,29.26 31.77,39.56 8.21,10.3 19.45,24.11 33.71,41.44 14.27,17.33 26.75,31.61 37.46,42.85 26.17,28.24 48.73,47.83 67.69,58.78 18.96,10.94 32.17,9.97 39.61,-2.93 26.26,-45.51 -6.91,-140.48 -99.49,-284.9 -4,-5.34 -5.01,-9.72 -3.04,-13.13 1.97,-3.41 9.97,-1.07 24,7.02 14.03,8.1 26.07,20.1 36.1,36zm-668.79 -202.41c-15.32,26.54 6.75,85.54 66.22,176.98 59.46,91.44 131.99,189.15 217.58,293.13 -62.16,-174.38 -121.36,-303.07 -177.6,-386.08 -35.53,-48.81 -60.69,-77.49 -75.48,-86.02 -14.79,-8.54 -25.03,-7.87 -30.72,1.99z"/>
   <path class="fil6" d="M4191.29 1458.06c-116.55,-222.34 -293.2,-376.72 90.67,-398.62 -13.19,-0.11 -26.44,-0.18 -39.76,-0.18 -514.28,0 -931.19,89.33 -931.19,199.54 0,106.55 583.67,-17.06 880.28,199.25z"/>
  </g>
 </g>
</svg>
