<?xml version="1.0" encoding="UTF-8"?>
<!DOCTYPE svg PUBLIC "-//W3C//DTD SVG 1.0//EN" "http://www.w3.org/TR/2001/REC-SVG-20010904/DTD/svg10.dtd">
<!-- Creator: CorelDRAW 2019 (64-Bit) -->
<svg xmlns="http://www.w3.org/2000/svg" xml:space="preserve" width="16.5354in" height="11.6929in" version="1.0" style="shape-rendering:geometricPrecision; text-rendering:geometricPrecision; image-rendering:optimizeQuality; fill-rule:evenodd; clip-rule:evenodd"
viewBox="0 0 16535.43 11692.91"
 xmlns:xlink="http://www.w3.org/1999/xlink">
 <defs>
  <style type="text/css">
   <![CDATA[
    .fil0 {fill:url(#id0)}
   ]]>
  </style>
  <linearGradient id="id0" gradientUnits="userSpaceOnUse" x1="-2458.46" y1="8314.1" x2="15300.49" y2="4237.74">
   <stop offset="0" style="stop-opacity:1; stop-color:black"/>
   <stop offset="0.341176" style="stop-opacity:1; stop-color:#2200FF"/>
   <stop offset="1" style="stop-opacity:1; stop-color:#FF00AA"/>
  </linearGradient>
 </defs>
 <g id="Layer_x0020_1">
  <metadata id="CorelCorpID_0Corel-Layer"/>
  <path class="fil0" d="M4288.69 3916.64c439.72,-44.26 122.44,-423.76 555.28,-785.64 681.86,-570.02 1616.26,184.54 1272.71,980.7 -221.4,513.1 -530.99,335.1 -889.83,568.09l-32.77 669.01 -3253.59 1341.28c-563.26,298.1 -2015.45,842.59 -1809.91,1532.61 163.17,344.41 839.56,407.31 1160.68,364.41 28.81,-3.84 890.67,-96.95 1098.41,-153.52 186.15,-50.69 348.07,-121.68 485.7,-212.94l4.59 -3.06 2.87 -1.93 3.68 -2.51 1.93 -1.31 1.34 -0.93 0.88 -0.62 10.85 -7.62 1.6 -1.15 0.81 -0.57 4.59 -3.32 0.31 -0.24 1.96 -1.43 0.65 -0.46 5.42 -4.06 1.77 -1.34 0.41 -0.29 2.56 -1.96 3.22 -2.48 6.35 -4.94c100.44,-79.28 150.67,-162.19 150.67,-248.8 0,-141.98 -135.46,-214.43 -406.37,-217.32 -301.35,0 -452,-23.91 -452,-71.7 0,-30.43 28.23,-66.64 84.75,-108.66 301.33,-217.32 662.06,-325.98 1082.19,-325.98 63.75,0 95.62,9.43 95.62,28.26 0,36.21 -42.02,68.82 -126.02,97.79 -84.03,28.97 -167.7,54.32 -251,76.06 -83.31,21.74 -124.95,40.56 -124.95,56.51 0,20.28 71.35,30.41 214.04,30.41 142.7,0 257.52,-26.06 344.44,-78.23 78.23,-46.36 117.33,-89.81 117.33,-130.37 0,-50.71 -15.93,-95.26 -47.8,-133.67 -31.86,-38.39 -68.46,-67 -109.73,-85.82 -41.3,-18.85 -93.44,-35.14 -156.48,-48.89 -63.01,-13.76 -122.78,-20.64 -179.26,-20.64 -159.37,5.78 -307.13,27.52 -443.33,65.19 -136.18,37.67 -245.91,81.5 -329.22,131.47 -83.29,49.97 -155,102.85 -215.12,158.63 -60.12,55.78 -102.5,103.95 -127.15,144.51 -24.63,40.58 -36.93,70.99 -36.93,91.27 0,68.1 26.8,122.42 80.4,163 21.74,17.37 51.07,32.58 88.02,45.62 36.93,13.04 78.94,24.27 126.02,33.68 47.08,9.41 138.73,14.14 274.91,14.14l221.67 -8.7c75.31,0 112.98,15.93 112.98,47.8 0,49.25 -51.43,100.68 -154.28,154.3 -92.89,48.42 -198.5,89.72 -316.8,123.94l-1.36 0.41 -3.37 0.95 -2.51 0.72 -17.82 4.99c-162.67,1.89 -359.32,4.13 -579.67,4.32 -430.98,0.36 -1080.8,95.88 -1389.32,-115.11 398.11,-775.7 4089.87,-1970.21 4992.8,-2305.79l1340.04 57.83 1143.55 194.7c114.04,23.62 252.26,51.85 420.45,85.8 806.33,162.74 2299.17,456.58 3622.28,641.68 1093.28,152.94 2070.68,231.65 2702.59,275.94 -92.94,2.63 -153.11,16.96 -180.48,43.02 -104.31,79.69 -239.03,216.96 -404.2,411.8 -106.87,126.1 -204.8,248.39 -293.78,366.89 -220.47,155.62 -387.67,263.32 -501.56,323.06 -118.79,62.3 -231.79,93.44 -339,93.44 -23.19,0 -34.78,-15.21 -34.78,-45.62 0,-65.19 55.77,-156.48 167.32,-273.81 111.55,-117.35 228.9,-184.71 352.06,-202.1 7.24,0 10.84,3.61 10.84,10.87 0,7.24 -1.43,13.76 -4.35,19.56 -23.17,31.86 -78.23,73.14 -165.15,123.85 -13.04,4.35 -19.56,10.87 -19.56,19.56 0,21.74 18.85,32.61 56.52,32.61 89.81,0 166.25,-25.37 229.26,-76.08 63.01,-50.69 95.26,-102.11 96.69,-154.28l-4.35 -21.74c-1.43,-14.48 -13.76,-28.98 -36.93,-43.45 -23.19,-14.5 -61.22,-21.74 -114.11,-21.74 -52.86,0 -122.78,16.29 -209.7,48.89 -51.52,19.32 -101.78,42.35 -150.77,69.06 -1.74,-1.72 -3.63,-3.34 -5.69,-4.94 -17.65,13.11 -35.33,26.18 -53.05,39.13 -13.55,8.39 -27.04,17.08 -40.39,26.06 -25.61,17.22 -49.94,35.74 -73,55.58 -206.9,146.61 -418.68,283.87 -635.44,411.63 -23.17,8.69 -40.2,13.04 -51.07,13.04 -10.87,0 -19.92,-2.54 -27.16,-7.6 -7.24,-5.09 -10.87,-11.22 -10.87,-18.49 0,-44.91 44.91,-123.85 134.74,-236.85 89.81,-113.01 184.35,-216.6 283.58,-310.76 99.24,-94.16 162.62,-141.98 190.16,-143.41 62.3,-2.91 177.09,-13.4 344.44,-31.53 167.32,-18.11 265.11,-29.33 293.35,-33.68 28.26,-4.35 42.37,-12.3 42.37,-23.89 0,-15.96 -15.93,-28.98 -47.8,-39.13 -65.19,-40.56 -169.5,-60.84 -312.93,-60.84l-110.83 2.17c-20.28,0 -30.41,-5.09 -30.41,-15.22 1.43,-11.58 5.78,-28.97 13.04,-52.17l54.32 -76.05c11.58,-18.82 17.39,-31.87 17.39,-39.1 0,-21.74 -26.09,-32.61 -78.23,-32.61 -52.17,0 -82.57,8.7 -91.27,26.09l-149.96 199.93c-191.23,14.48 -361.8,32.58 -511.76,54.32l-92.7 13.45c-1.39,-1.34 -2.94,-2.65 -4.66,-3.94l1.74 -1.91c12.32,-13.76 22.83,-26.06 31.5,-36.93 8.7,-10.87 13.04,-23.91 13.04,-39.13 0,-15.22 -10.13,-35.14 -30.41,-59.76 -4.35,-5.78 -13.78,-8.7 -28.26,-8.7 -33.32,0 -76.06,20.66 -128.22,61.94 -9.2,7.29 -17.61,14.62 -25.18,21.98 -51.19,-9.58 -111.62,-14.35 -181.27,-14.35l-110.83 2.17c-20.28,0 -30.41,-5.09 -30.41,-15.22 1.43,-11.58 5.78,-28.97 13.04,-52.17l54.31 -76.05c11.59,-18.82 17.39,-31.87 17.39,-39.1 0,-21.74 -26.08,-32.61 -78.23,-32.61 -52.17,0 -82.57,8.7 -91.27,26.09l-149.96 199.93c-112.29,8.5 -217.44,18.23 -315.49,29.24 69.8,-43.5 104.69,-84.37 104.69,-122.68 0,-50.71 -15.93,-95.26 -47.8,-133.67 -31.86,-38.39 -68.46,-67 -109.73,-85.82 -41.3,-18.85 -93.44,-35.14 -156.48,-48.89 -63.01,-13.76 -122.78,-20.64 -179.26,-20.64 -159.37,5.78 -307.13,27.52 -443.33,65.19 -136.18,37.67 -245.91,81.5 -329.22,131.47 -83.29,49.97 -155,102.85 -215.12,158.63 -60.12,55.78 -102.5,103.95 -127.15,144.51 -24.63,40.58 -36.93,70.99 -36.93,91.27 0,68.1 26.8,122.42 80.4,163 21.74,17.37 51.07,32.58 88.02,45.62 36.93,13.04 78.94,24.27 126.02,33.68 47.08,9.41 138.73,14.14 274.91,14.14l221.67 -8.7c75.31,0 112.98,15.93 112.98,47.8 0,49.25 -51.43,100.68 -154.28,154.3 -102.85,53.6 -221.31,98.51 -355.31,134.72 -134,36.21 -259.69,65.93 -377.02,89.09 -117.35,23.19 -190.52,34.78 -219.49,34.78 -28.97,0 -43.47,-2.17 -43.47,-6.52 0,-4.35 20.3,-13.76 60.86,-28.26 18.82,-7.24 36.21,-15.22 52.14,-23.91 17.39,-13.02 26.09,-22.45 26.09,-28.23 0,-2.92 -3.63,-4.35 -10.87,-4.35 -7.24,0 -16.65,1.43 -28.26,4.35 -47.8,21.71 -157.17,42.02 -328.13,60.83 -31.87,1.46 -47.82,11.59 -47.82,30.43 0,57.95 42.76,107.2 128.22,147.76 85.46,40.56 166.61,60.86 243.38,60.86 163.71,-1.46 338.66,-27.54 524.8,-78.25 186.17,-50.69 348.07,-121.68 485.7,-212.94 137.63,-91.27 206.45,-187.63 206.45,-289.02 0,-141.98 -135.46,-214.43 -406.37,-217.32 -301.35,0 -452,-23.91 -452,-71.7 0,-30.43 28.23,-66.64 84.75,-108.66 301.33,-217.32 662.06,-325.98 1082.19,-325.98 63.75,0 95.62,9.43 95.62,28.26 0,36.21 -42.02,68.82 -126.02,97.79 -84.03,28.97 -167.7,54.32 -251,76.06 -83.31,21.74 -124.95,40.56 -124.95,56.51 0,13.19 30.14,22.07 90.46,26.68 5.49,13.85 27.49,24.53 66,31.98 5.81,43.47 105.03,65.19 297.72,65.19l136.89 -4.35c30.43,0 45.65,4.35 45.65,13.04 0,8.69 -6.52,18.11 -19.56,28.26 -139.07,123.13 -248.82,243.38 -329.22,360.73 -80.4,117.35 -120.6,207.17 -120.6,269.46 0,62.3 14.86,111.55 44.55,147.78 29.69,36.21 62.3,54.31 97.79,54.31 35.49,0 66.28,-3.63 92.34,-10.87 72.45,-23.17 199.93,-108.66 382.47,-256.42 46.24,-36.41 94.52,-76.17 144.77,-119.27 -37.09,68.84 -55.65,123.06 -55.65,162.72 0,118.81 55.78,178.21 167.32,178.21 30.41,0 58.67,-3.63 84.75,-10.87 81.12,-24.63 207.17,-105.77 378.12,-243.4l29 -23.29c-22.24,47.96 -33.35,88.33 -33.35,121.08 0,62.3 14.86,111.55 44.55,147.78 29.69,36.21 62.3,54.31 97.79,54.31 35.5,0 66.28,-3.63 92.35,-10.87 72.44,-23.17 199.93,-108.66 382.46,-256.42 25.65,-20.19 51.91,-41.42 78.78,-63.66 -10.48,35.35 -15.74,71.06 -15.74,107.11 0,118.81 55.78,178.21 167.32,178.21 94.16,0 215.86,-40.2 365.08,-120.63 126.81,-68.34 241.32,-140.02 343.56,-215.17 -97.19,144.58 -145.8,236.21 -145.8,274.93 8.69,30.43 28.97,45.65 60.84,45.65 14.5,0 26.08,-6.52 34.78,-19.56 43.45,-60.84 165.87,-169.5 367.25,-325.98 17.39,-13.02 28.26,-19.54 32.61,-19.54 4.35,0 6.52,1.43 6.52,4.35 0,27.52 -15.96,71.35 -47.82,131.47 -31.87,60.12 -47.8,103.21 -47.8,129.3 0,76.77 24.63,115.18 73.88,115.18 30.41,0 58.67,-3.63 84.75,-10.87 81.12,-24.63 207.17,-105.77 378.12,-243.4 33.8,-27.04 68.96,-55.63 105.51,-85.8 -19.61,46.67 -29.43,91.96 -29.43,135.79 0,136.18 55.78,204.28 167.32,204.28 94.16,0 215.86,-40.2 365.08,-120.63 149.22,-80.4 281.4,-165.51 396.58,-255.32 73.11,-57.02 137.61,-110.54 193.5,-160.56l107.46 -82.84c20.28,-15.93 38.03,-23.91 53.24,-23.91 15.22,0 22.83,5.09 22.83,15.22 0,37.67 -8.69,88.02 -26.08,151.03 -17.39,63.01 -47.44,125.31 -90.19,186.89 -42.74,61.58 -89.1,92.37 -139.07,92.37 -50,0 -88.02,-12.33 -114.11,-36.95 -8.67,-10.13 -17.01,-22.81 -24.98,-38.03 -7.95,-15.22 -11.94,-26.44 -11.94,-33.68 -17.39,0 -31.51,5.43 -42.38,16.29 -10.87,10.87 -16.31,22.81 -16.31,35.85 0,163.72 68.1,245.57 204.28,245.57 55.06,0 132.57,-29.72 232.53,-89.09 99.96,-59.41 193.76,-124.98 281.4,-196.68 87.67,-71.7 167.35,-137.99 239.06,-198.83 71.7,-60.86 109.02,-91.27 111.91,-91.27 13.04,-11.59 19.56,-24.63 19.56,-39.13 0,-14.48 -6.52,-26.8 -19.56,-36.93l-52.14 39.1c-168.06,124.59 -306.41,214.43 -415.07,269.46 -8.7,4.35 -14.48,6.52 -17.39,6.52 -2.89,0 -4.35,-1.43 -4.35,-4.35 0,-2.89 8.33,-22.81 25.01,-59.76 16.65,-36.93 32.94,-90.89 48.89,-161.87 15.93,-70.99 23.89,-149.96 23.89,-236.88 0,-14.48 -20.28,-27.16 -60.83,-38.03 -40.56,-10.87 -69.54,-16.29 -86.93,-16.29 -17.39,0 -36.95,14.47 -58.66,43.45 -175.78,157.91 -316.37,274.14 -421.86,348.76l-23.98 16.03c-8.5,5.14 -14.95,9.41 -19.3,12.8 -120.17,79.3 -220.83,139.24 -301.97,179.82 -128.94,64.47 -248.46,96.69 -358.56,96.69 -17.39,-5.78 -26.08,-20.64 -26.08,-44.55 0,-23.89 11.58,-55.04 34.75,-93.44 23.2,-38.39 39.84,-57.59 50,-57.59 10.15,0 18.11,2.17 23.91,6.52 11.59,21.74 29.33,32.61 53.24,32.61 23.89,0 73.16,-18.46 147.76,-55.42 74.62,-36.95 145.97,-85.46 214.04,-145.59 68.1,-60.12 102.14,-114.11 102.14,-161.9 0,-26.08 -14.83,-52.88 -44.55,-80.4 -29.69,-27.54 -61.94,-41.3 -96.69,-41.3 -78.23,0 -168.06,30.79 -269.46,92.37 -49.13,29.83 -95.14,63.73 -137.99,101.73 -215.31,154.35 -414.91,280.9 -598.71,379.6 -17.39,8.69 -28.97,13.04 -34.78,13.04 -5.78,0 -8.7,-3.63 -8.7,-10.87 0,-21.74 21.74,-66.64 65.21,-134.74 21.71,-41.99 86.18,-139.07 193.41,-291.17 2.89,-4.35 4.35,-9.44 4.35,-15.22 0,-18.85 -18.13,-30.43 -54.34,-34.78 -42.02,0 -69.53,6.52 -82.57,19.56 -42.02,27.52 -105.74,73.52 -191.23,137.99 -85.46,64.47 -131.11,96.69 -136.89,96.69l-2.17 -2.17c0,-4.35 4.7,-14.11 14.11,-29.33 9.41,-15.22 17.03,-25.7 22.81,-31.51 113.01,-155.02 378.12,-433.89 795.37,-836.64 10.13,-10.15 15.22,-20.28 15.22,-30.43 0,-7.81 -5.19,-13.93 -15.53,-18.3 115.3,8 218.34,14.81 307.54,20.73 576.69,38.17 576.69,38.17 -796.34,-166.75 -1373.03,-204.94 -4119.09,-614.81 -5502.1,-815.74 -568.52,-82.6 -906.56,-129.87 -1104.26,-155.57 -642.85,-173.7 -1823.67,-335.39 -2075.24,-556.79l-10.63 -366.46c401.07,-283.65 712.48,-220.02 925.43,-797.99 202.94,-550.81 -32.53,-1019.56 -331.4,-1294.28 -933.17,-858.02 -2267.26,329.58 -1842.73,1035.85zm10836.43 3802c-37.67,0 -101.42,38.74 -191.23,116.25 -89.81,77.51 -134.74,124.95 -134.74,142.34 0,2.91 2.17,4.35 6.52,4.35 31.89,0 95.26,-35.49 190.16,-106.48 94.88,-70.99 142.34,-119.5 142.34,-145.59 0,-7.24 -4.35,-10.87 -13.04,-10.87zm-2861.07 165.77c69.06,-84.24 152.76,-169.9 251.17,-257.04 13.04,-10.15 19.56,-19.56 19.56,-28.26 0,-8.7 -15.22,-13.04 -45.65,-13.04l-136.89 4.35c-192.69,0 -291.91,-21.71 -297.72,-65.19l-0.19 -0.02c-19.85,7.26 -39.31,10.89 -58.47,10.89 -16.27,-2.72 -27.49,-9.94 -33.61,-21.69l-108.73 11.89c-167.35,18.13 -282.15,28.62 -344.44,31.53 -27.54,1.43 -90.91,49.25 -190.16,143.41 -99.22,94.16 -193.76,197.75 -283.58,310.76 -89.83,113 -134.74,191.95 -134.74,236.85 0,7.26 3.63,13.4 10.87,18.49 7.24,5.06 16.29,7.6 27.16,7.6 10.87,0 27.9,-4.35 51.07,-13.04 227.9,-134.34 450.33,-279.09 667.31,-434.28 4.99,-6.35 10.01,-12.64 15.05,-18.82 53.6,-65.9 89.1,-102.5 106.48,-109.73 26.09,-15.93 54.32,-23.91 84.75,-23.91 30.43,0 59.4,5.81 86.92,17.39 8.69,4.35 13.04,10.15 13.04,17.39 0,7.24 -6.88,18.11 -20.64,32.61 -13.76,14.47 -34.78,36.93 -63.04,67.36 -28.23,30.43 -70.25,82.93 -126.02,157.56 -55.77,74.59 -93.08,137.27 -111.93,187.96 -11.59,20.28 -17.37,38.41 -17.37,54.34 0,15.93 8.69,23.89 26.06,23.89 10.15,0 27.54,-4.33 52.17,-13.02 190.04,-99.61 377.24,-211.66 561.56,-336.22zm-4792.61 -413.49c-2.89,8.67 -4.35,14.47 -4.35,17.36 0,49.28 72.44,84.04 217.31,104.31 50.71,5.81 101.42,8.7 152.13,8.7l41.28 0c44.91,0 75.69,3.99 92.37,11.97 16.65,7.95 24.98,28.59 24.98,61.91 0,53.63 -21.74,80.43 -65.19,80.43l-121.7 -6.52c-65.19,0 -156.09,9.41 -272.73,28.23 -116.61,18.85 -228.54,47.08 -335.74,84.75 -107.2,37.67 -160.8,78.61 -160.8,122.8 0,44.17 76.06,93.8 228.19,148.86 152.11,55.03 303.86,82.57 455.25,82.57 151.39,0 286.85,-14.14 406.38,-42.37 119.53,-28.26 207.52,-56.16 264.04,-83.67 56.49,-27.52 84.75,-46.37 84.75,-56.49 0,-10.15 -28.26,-15.22 -84.75,-15.22 -56.52,0 -128.58,7.24 -216.24,21.74 -87.64,14.48 -140.52,25.34 -158.63,32.58 -18.11,7.24 -31.15,10.87 -39.1,10.87 -7.98,0 -12.33,-0.36 -13.04,-1.07 -0.74,-0.74 -1.81,-4.73 -3.27,-11.96 73.88,-62.3 156.83,-109.74 248.82,-142.34 91.98,-32.58 165.51,-48.9 220.56,-48.9 98.53,0 147.79,51.43 147.79,154.31 0,65.19 -27.9,123.49 -83.67,174.92 -55.78,51.43 -128.58,92.37 -218.39,122.78 -182.54,59.41 -378.83,89.12 -588.92,89.12l-54.31 0c-139.09,192.67 -229.64,323.06 -271.63,391.14 -2.92,15.95 -11.61,23.91 -26.09,23.91 -14.5,0 -29.33,-13.76 -44.55,-41.28 -15.22,-27.54 -22.81,-57.95 -22.81,-91.27 0,-63.75 53.6,-164.43 160.8,-302.06 -168.06,-27.54 -286.49,-77.51 -355.31,-149.96 -68.82,-72.42 -103.21,-141.98 -103.21,-208.6 0,-66.64 17.01,-122.8 51.07,-168.42 34.04,-45.65 75.34,-81.5 123.85,-107.58 48.54,-26.06 97.07,-47.8 145.61,-65.19 48.54,-17.39 89.81,-30.79 123.85,-40.2 34.06,-9.41 51.07,-15.57 51.07,-18.46l-4.35 -13.04c-49.25,-52.17 -73.88,-100.32 -73.88,-144.51 0,-44.19 10.15,-87.28 30.43,-129.3 50.71,-102.85 140.52,-180.72 269.46,-233.61 128.94,-52.89 269.46,-85.13 421.59,-96.72 185.43,-188.32 324.52,-310.74 417.22,-367.25 11.59,-8.69 22.45,-13.04 32.61,-13.04 10.13,0 18.1,2.91 23.91,8.69 31.86,23.19 47.8,38.03 47.8,44.55 0,6.52 -2.17,11.97 -6.52,16.31 -123.13,121.68 -222.38,224.56 -297.72,308.56 182.54,14.5 273.81,82.57 273.81,204.28 0,17.39 -1.43,36.21 -4.35,56.52 -2.89,0 -8.67,-5.09 -17.36,-15.22 -37.67,-39.13 -136.56,-58.69 -296.65,-58.69 -160.09,0 -327.05,26.44 -500.89,79.33 -173.84,52.88 -277.44,113.36 -310.76,181.46zm-1572.22 745.37c49.97,0 96.33,-30.79 139.07,-92.37 42.76,-61.58 72.8,-123.87 90.19,-186.89 17.39,-63.01 26.08,-113.36 26.08,-151.03 0,-10.13 -7.62,-15.22 -22.83,-15.22 -15.22,0 -32.96,7.98 -53.24,23.91l-284.67 219.49c-20.28,11.58 -43.45,17.39 -69.54,17.39 -26.08,0 -39.1,-9.44 -39.1,-28.26 0,-13.04 1.8,-21.74 5.43,-26.08 3.63,-4.35 14.11,-11.58 31.5,-21.74 107.2,-73.88 253.53,-194.12 438.98,-360.73 21.71,-28.98 41.27,-43.45 58.66,-43.45 17.39,0 46.37,5.42 86.93,16.29 40.56,10.87 60.83,23.55 60.83,38.03 0,86.92 -7.95,165.89 -23.89,236.88 -15.95,70.99 -32.24,124.95 -48.89,161.87 -16.67,36.95 -25.01,56.87 -25.01,59.76 0,2.92 1.46,4.35 4.35,4.35 2.91,0 8.69,-2.18 17.39,-6.52 108.66,-55.03 247.01,-144.87 415.07,-269.46l52.14 -39.1c13.04,10.13 19.56,22.45 19.56,36.93 0,14.5 -6.52,27.54 -19.56,39.13 -2.89,0 -40.2,30.41 -111.91,91.27 -71.7,60.84 -151.39,127.13 -239.06,198.83 -87.64,71.7 -181.44,137.28 -281.4,196.68 -99.96,59.38 -177.48,89.09 -232.53,89.09 -136.18,0 -204.28,-81.86 -204.28,-245.57 0,-13.04 5.44,-24.98 16.31,-35.85 10.87,-10.87 24.99,-16.29 42.38,-16.29 0,7.24 3.99,18.46 11.94,33.68 7.98,15.22 16.31,27.9 24.98,38.03 26.09,24.63 64.11,36.95 114.11,36.95zm-970.28 93.44c47.8,0 120.6,-27.9 218.39,-83.67 97.79,-55.78 185.43,-116.25 262.94,-181.46 77.51,-65.19 116.26,-110.81 116.26,-136.89 0,-4.35 -2.17,-6.52 -6.52,-6.52 -31.86,0 -98.86,32.25 -201,96.69 -102.14,64.47 -196.68,129.68 -283.6,195.58 -86.92,65.93 -130.37,101.78 -130.37,107.58 0,5.78 7.95,8.69 23.91,8.69zm551.96 -917.06c15.93,0 33.32,11.96 52.14,35.88 18.85,23.89 28.26,41.63 28.26,53.22 0,11.61 -2.17,19.56 -6.52,23.91 -99.96,86.92 -197.04,178.19 -291.2,273.81 -94.16,95.61 -163.72,169.52 -208.62,221.66l-65.19 78.23c-11.59,11.59 -17.39,19.56 -17.39,23.91 0,4.35 1.46,6.52 4.35,6.52 2.89,0 6.52,-2.18 10.87,-6.52l19.56 -15.22c237.59,-211.51 422.31,-317.28 554.13,-317.28 17.39,0 33.32,5.09 47.8,15.22 49.25,40.56 73.9,86.56 73.9,137.99 0,51.43 -36.59,116.99 -109.76,196.68 -73.17,79.69 -163.33,149.57 -270.54,209.7 -107.22,60.12 -196.68,90.2 -268.39,90.2 -71.71,0 -119.17,-18.85 -142.34,-56.52l-23.91 -34.78c-1.43,-1.43 -3.61,-2.15 -6.52,-2.15 -31.87,0 -137.25,101.4 -316.19,304.22 -178.91,202.82 -293.73,349.89 -344.44,441.15 -5.78,26.06 -17.39,39.1 -34.76,39.1 -8.69,0 -16.67,-2.89 -23.91,-8.69l-97.79 -76.06c-5.8,-2.89 -8.69,-9.41 -8.69,-19.56 0,-17.39 109.73,-159.73 329.22,-427.02 122.49,-149.17 248.25,-297.55 377.28,-445.14l-30.67 24.65c-170.95,137.63 -297,218.78 -378.12,243.4 -26.08,7.24 -54.34,10.87 -84.75,10.87 -111.55,0 -167.32,-59.41 -167.32,-178.21 0,-26.01 7.98,-58.31 23.96,-96.89 -49.66,40.92 -106.53,86.26 -170.64,136.01 -145.59,113 -247.37,169.5 -305.31,169.5 -111.55,0 -167.32,-59.38 -167.32,-178.19 0,-44.91 17.37,-91.98 52.14,-141.24l93.44 -128.22c8.69,-13.04 13.04,-20.64 13.04,-22.81 0,-2.17 -4.35,0.36 -13.04,7.59 -252.07,210.08 -412.9,333.21 -482.43,369.43 -11.59,7.26 -26.09,10.87 -43.45,10.87 -47.82,0 -71.73,-21.74 -71.73,-65.19 0,-14.5 3.63,-27.54 10.87,-39.13 107.2,-98.51 182.54,-178.91 226.01,-241.2 34.76,-34.78 71.35,-83.31 109.74,-145.61 38.39,-62.3 70.99,-113.72 97.79,-154.28 26.8,-40.56 48.18,-60.84 64.11,-60.84 11.58,0 30.79,5.78 57.59,17.36 26.8,11.61 40.2,24.65 40.2,39.13 0,10.15 -3.63,20.28 -10.87,30.43l-162.98 225.99c-18.85,23.19 -28.26,36.23 -28.26,39.13 0,2.89 0.72,4.35 2.17,4.35l10.87 -6.52c168.04,-117.35 306.41,-220.2 415.07,-308.58 20.28,-14.48 37.29,-21.74 51.05,-21.74 13.78,0 22.83,1.46 27.18,4.35l60.84 17.39c14.5,7.24 21.74,16.67 21.74,28.26 0,11.58 -2.89,21 -8.69,28.26 -27.52,30.41 -59.05,64.83 -94.54,103.21 -35.5,38.39 -61.91,67.36 -79.3,86.92 -17.39,19.56 -36.95,41.66 -58.69,66.29 -21.71,24.63 -37.28,43.45 -46.72,56.49 -9.41,13.04 -19.92,27.9 -31.5,44.55 -11.59,16.67 -19.56,30.79 -23.91,42.37 -8.67,33.32 -13.02,62.3 -13.02,86.92 0,13.04 8.31,19.56 24.98,19.56 16.65,0 47.08,-10.13 91.27,-30.41 44.19,-20.3 97.07,-51.45 158.63,-93.44 61.58,-42.02 143.44,-101.78 245.57,-179.29 27.95,-21.21 54.96,-41.54 81.02,-60.96 21.64,-30.65 43.52,-59.62 65.64,-86.83 53.6,-65.9 89.09,-102.5 106.48,-109.73 26.09,-15.93 54.32,-23.91 84.75,-23.91 30.43,0 59.41,5.81 86.93,17.39 8.69,4.35 13.04,10.15 13.04,17.39 0,7.24 -6.88,18.11 -20.64,32.61 -13.76,14.47 -34.78,36.93 -63.04,67.36 -28.23,30.43 -70.25,82.93 -126.02,157.56 -55.78,74.59 -93.08,137.27 -111.93,187.96 -11.59,20.28 -17.37,38.41 -17.37,54.34 0,15.93 8.69,23.89 26.06,23.89 10.15,0 27.54,-4.33 52.17,-13.02 246.6,-129.25 488.4,-279.47 725.4,-450.73 231.5,-251.48 368.56,-377.24 411.13,-377.24zm-675.84 -93.44c14.48,0 23.91,2.91 28.26,8.7 20.28,24.63 30.41,44.55 30.41,59.76 0,15.21 -4.35,28.26 -13.04,39.13 -8.67,10.87 -19.18,23.17 -31.5,36.93 -12.3,13.78 -36.93,32.61 -73.88,56.52 -36.95,23.91 -72.81,35.85 -107.56,35.85 -26.09,-4.35 -39.13,-20.28 -39.13,-47.82 0,-43.45 26.08,-85.82 78.23,-127.12 52.17,-41.28 94.9,-61.94 128.22,-61.94z"/>
 </g>
</svg>
