<?xml version="1.0" encoding="UTF-8"?>
<!DOCTYPE svg PUBLIC "-//W3C//DTD SVG 1.0//EN" "http://www.w3.org/TR/2001/REC-SVG-20010904/DTD/svg10.dtd">
<!-- Creator: CorelDRAW 2019 (64-Bit) -->
<svg xmlns="http://www.w3.org/2000/svg" xml:space="preserve" width="8.26772in" height="11.6929in" version="1.0" style="shape-rendering:geometricPrecision; text-rendering:geometricPrecision; image-rendering:optimizeQuality; fill-rule:evenodd; clip-rule:evenodd"
viewBox="0 0 8267.72 11692.91"
 xmlns:xlink="http://www.w3.org/1999/xlink"
 enable-background="new 0 0 512.01 512.01">
 <defs>
  <style type="text/css">
   <![CDATA[
    .str0 {stroke:#373435;stroke-width:6.94;stroke-miterlimit:2.61313}
    .fil0 {fill:black}
    .fil1 {fill:#F3C623}
   ]]>
  </style>
 </defs>
 <g id="Layer_x0020_1">
  <metadata id="CorelCorpID_0Corel-Layer"/>
  <path class="fil0" d="M7342.82 1571.34l-102.66 0c195.69,-318.6 123.43,-746.33 -190.64,-979.35 -338.41,-251.06 -819.3,-170.24 -1055.47,182.68l-533.1 796.69 -4579.61 0c-376.43,0 -682.68,306.25 -682.68,682.68l0 4364.61c0,376.43 306.25,682.68 682.68,682.68l2651.71 -0.01 -200.35 841.53 -432.43 0c-281.83,0 -511.11,229.27 -511.11,511.09l0 106.72 -533.08 0c-93.34,0 -168.99,75.67 -168.99,168.99 0,93.31 75.65,168.99 168.99,168.99l4512.05 0c93.34,0 168.99,-75.68 168.99,-168.99 0,-93.32 -75.65,-168.99 -168.99,-168.99l-533.08 0 0 -106.72c0,-281.83 -229.29,-511.09 -511.11,-511.09l-432.43 0 -200.35 -841.53 2651.71 0c376.43,0 682.68,-306.25 682.68,-682.68l0 -960.38 0 -3404.24c0,-376.43 -306.25,-682.68 -682.69,-682.68l-0.01 0zm-2421.34 2970.85c-264.22,184.96 -759.21,-66.44 -1231.91,185.79 -115.33,-599.16 -42.62,-1162.66 557.72,-1287.04 77.59,-16.17 161.12,-23.49 232.22,-22.07 203.2,150.76 408.72,303.24 611.35,453.59 88.7,258.02 55.41,512.38 -169.38,669.73zm170.31 -1811.38l478.36 354.92 -367.88 448.52c-151.45,-112.36 -281.64,-208.96 -433.09,-321.34 31.45,-47 293.85,-439.16 322.61,-482.1zm1183.17 -1768.17c127.99,-191.31 389.04,-235.83 573.17,-99.2 184.2,136.65 217.19,399.36 71.23,577.33 -258.98,315.72 -874.68,1066.4 -1134.64,1383.35l-504.77 -374.52 995.02 -1486.95zm-777.94 7691.3l0 106.72 -2769.89 0 0 -106.72c0,-95.44 77.67,-173.11 173.13,-173.11l2423.63 0c95.46,0 173.13,77.67 173.13,173.11zm-952.99 -511.09l-863.92 0 200.35 -841.53 463.2 0 200.36 841.53zm3143.49 -1524.2c0,190.07 -154.63,344.69 -344.69,344.69 -268.26,0 -6159.87,0 -6461.48,0 -190.07,0 -344.69,-154.63 -344.69,-344.69l0 -791.39 482.91 0c93.33,0 168.99,-75.67 168.99,-168.99 0,-93.31 -75.66,-168.99 -168.99,-168.99l-482.94 0.01 0 -3235.26c0,-190.06 154.63,-344.69 344.69,-344.69l4353.47 0c-161.9,241.95 -634.21,947.79 -783.82,1171.35 -331.17,2.99 -661.8,118.36 -878.24,371.04 -294.54,343.81 -346.28,884.05 -153.8,1605.67 32.9,123.39 186.87,167.61 280.04,78.61 436.96,-417.53 981.18,37.9 1468.53,-356.56 297.49,-240.81 367.89,-623.65 255.72,-981.63 151.64,-184.88 1396.95,-1703.16 1548.94,-1888.48l370.65 -0.01c190.06,0 344.69,154.63 344.69,344.69l0 3235.24 -5316.03 0c-93.34,0 -168.99,75.67 -168.99,168.99 0,93.31 75.65,168.99 168.99,168.99l5316.06 0 0 791.4z"/>
  <path class="fil0" d="M1662.89 5492.53c-81.35,16.63 -135.87,86.95 -135.87,165.8 0,105.7 96.65,186.65 201.94,165.61 93.57,-19 150.57,-109.17 132.65,-198.73 -18.81,-92.43 -108.47,-150.84 -198.73,-132.67l0 -0.01z"/>
  <path class="fil1 str0" d="M4247.29 3440.94c-600.34,124.38 -673.05,687.88 -557.72,1287.03 472.7,-252.24 967.69,-0.83 1231.91,-185.79 224.8,-157.35 258.09,-411.71 169.38,-669.72 -202.62,-150.35 -408.15,-302.83 -611.34,-453.59 -71.11,-1.43 -154.64,5.89 -232.23,22.07z"/>
 </g>
</svg>
