<?xml version="1.0" encoding="UTF-8"?>
<!DOCTYPE svg PUBLIC "-//W3C//DTD SVG 1.1//EN" "http://www.w3.org/Graphics/SVG/1.1/DTD/svg11.dtd">
<!-- Creator: CorelDRAW 2019 (64-Bit) -->
<?xml-stylesheet href="logo.css" type="text/css"?>
<svg xmlns="http://www.w3.org/2000/svg" xml:space="preserve" width="8.26388in" height="5.83333in" version="1.1" style="shape-rendering:geometricPrecision; text-rendering:geometricPrecision; image-rendering:optimizeQuality; fill-rule:evenodd; clip-rule:evenodd"
viewBox="0 0 8263.88 5833.33"
 xmlns:xlink="http://www.w3.org/1999/xlink">
 <g id="Layer_x0020_1">
  <metadata id="CorelCorpID_0Corel-Layer"/>
  <path class="fil0" d="M2204.32 3205.17c0,-662.17 178.56,-1181.12 534.76,-1555.92 356.2,-374.8 815.63,-561.73 1379.21,-561.73 199.22,0 610.93,90.78 608,89.85l519.18 -519.18c65.44,-65.44 172.52,-65.44 237.96,0 65.45,65.45 65.44,172.53 0,237.97l-423.46 423.46c-39.11,-21.37 51.94,29.49 56.22,32.03 59.5,35.36 116.17,73.54 170.02,114.56l-4.23 -3.21 1371.53 -1371.53c65.44,-65.44 172.53,-65.44 237.96,0 65.44,65.44 65.44,172.53 0,237.97l-1362.32 1362.33c-41.94,-47.43 136.13,175.25 152,199.52l661.97 -661.97c65.43,-65.43 172.52,-65.44 237.96,0 65.44,65.44 65.44,172.53 0,237.97l-735.48 735.48c4.78,11.34 72.15,192.85 45.98,118.79l271.61 -271.61c65.44,-65.44 172.52,-65.44 237.96,0 65.44,65.44 65.44,172.53 0,237.97l-411.95 411.95c-0.34,-1.98 37.47,310.01 37.47,458.81 0,404.56 -81.85,767.27 -245.53,1086.26 -163.68,319.93 -395.26,561.73 -694.72,725.41 -300.39,164.61 -624.04,246.45 -970.94,246.45 -363.67,0 -689.19,-84.98 -978.24,-254.07l-779.15 779.15c-65.44,65.44 -172.52,65.44 -237.97,0 -65.45,-65.45 -65.45,-172.53 0,-237.97l740.02 -740.02c-64.44,-56.2 -124.28,-116.7 -179.47,-181.51l-1070.33 1070.33c-65.44,65.44 -172.52,65.44 -237.97,0 -65.44,-65.45 -65.44,-172.53 0,-237.97l1113.15 -1113.15c-18.34,-32.66 -35.81,-66.11 -52.43,-100.36 -23.65,-48.6 -45.46,-97.65 -65.44,-147.15l-648.8 648.8c-65.44,65.44 -172.52,65.44 -237.97,0 -65.44,-65.44 -65.44,-172.52 0,-237.97l774.63 -774.64c-34.13,-157.54 -51.21,-319.23 -51.21,-485.09zm2144.31 -62.28l259.01 -203.28 12.12 15.44 -259.02 203.29 -12.11 -15.44zm-269.6 -61.38c13.1,-3.4 22.78,-6.19 40.56,-6.15 1.33,-0.01 2.66,-0.01 4,-0 1.33,-0.01 2.67,-0.01 4,0 26.33,-0.05 44.88,2.64 68.35,7.95 -0.8,9.69 -1.22,19.48 -1.22,29.37 0,194.16 157.39,351.55 351.54,351.55 194.15,0 351.54,-157.39 351.54,-351.55l0 0c0,-5.1 -0.13,-10.16 -0.34,-15.21 6.48,-3.83 14.96,-9.81 26.01,-18.1 27.43,-20.56 70.68,-55.29 91.65,-77.25 20.96,-21.96 19.66,-31.13 15.41,-37.36 -3.91,-5.71 -10.31,-8.93 -30.06,-0.76 6.41,-7.44 12.68,-17.56 17.58,-31.21 14.76,-41.09 17.05,-114.18 18.2,-231.98 1.16,-117.81 1.16,-280.36 -25.07,-463.87 -26.22,-183.52 -78.65,-388.02 -152.06,-513.85 -73.41,-125.85 -167.79,-173.03 -285.76,-221.53 -117.98,-48.5 -259.54,-98.31 -382.76,-114.04 -123.22,-15.73 -228.09,2.62 -342.14,44.57 -114.04,41.94 -237.25,107.49 -336.88,197.94 -99.63,90.44 -175.66,205.8 -225.46,344.75 -49.81,138.94 -73.41,301.48 -83.9,414.22 -10.48,112.73 -7.87,175.65 -6.55,234.64 1.31,58.98 1.31,114.04 6.04,169.59 4.72,55.55 14.18,111.59 31.69,141.94 17.5,30.36 43.06,35.04 54.06,-13.96 11.01,-48.99 7.46,-151.66 6.99,-225.27 -0.46,-73.62 2.16,-118.19 16.58,-168 14.42,-49.81 40.63,-104.86 55.05,-178.27 14.42,-73.41 17.04,-165.17 32.77,-212.35 15.73,-47.19 44.57,-49.82 81.27,-72.1 36.71,-22.28 81.27,-64.23 149.44,-85.2 68.16,-20.98 159.92,-20.98 237.26,-19.67 77.33,1.31 140.26,3.93 194,13.11 53.74,9.17 98.31,24.9 154.68,23.59 56.37,-1.31 124.53,-19.67 194,-20.97 69.48,-1.31 140.26,14.41 199.24,49.81 59,35.39 106.18,90.45 138.96,128.46 32.77,38.01 51.12,58.98 90.45,65.54 39.32,6.56 99.62,-1.31 112.73,6.56 13.1,7.87 -20.98,31.46 -44.57,51.12 -23.59,19.66 -36.7,35.39 -36.7,65.54 0,30.15 13.11,74.72 24.91,116.67 11.79,41.95 22.28,81.27 36.7,117.97 14.42,36.71 32.77,70.79 44.01,135.15 11.25,64.36 15.39,158.98 9.81,210.57 -3.74,34.6 -11.87,49.83 -15.02,56.04 -22.15,12.63 -47.82,29.31 -64.69,42.25 -6.65,5.1 -11.92,9.61 -16.11,13.57 -35.25,-156.93 -175.42,-274.17 -342.99,-274.17 -168.76,0 -309.73,118.93 -343.71,277.54 -26.72,-2.07 -46.22,-2.8 -74.95,-2.74 -1.33,-0.01 -2.67,-0.01 -4,-0.01 -1.34,-0 -2.67,-0 -4,0.01 -17.02,-0.03 -31.72,0.31 -47.36,1.05 -34.61,-157.77 -175.18,-275.85 -343.34,-275.85 -151.13,0 -279.97,95.37 -329.65,229.2 -7.48,0.22 -19.3,0.68 -37.57,-2.21 -34.31,-5.41 -91.36,-22.63 -119.23,-26.65 -27.87,-4.02 -26.57,5.15 -22.31,11.38 4.27,6.23 11.47,9.5 42.65,24.24 31.17,14.74 86.3,40.95 115.13,48.66 1.98,0.54 3.83,0.97 5.57,1.34 -4.02,21.25 -6.13,43.17 -6.13,65.59 0,194.16 157.39,351.55 351.55,351.55 194.15,0 351.54,-157.39 351.54,-351.55l0 0c0,-10.51 -0.49,-20.91 -1.39,-31.18zm269.6 155.32l349.28 -274.12 16.33 20.81 -349.27 274.12 -16.34 -20.81zm72.41 43.77l301.19 -236.39 14.08 17.96 -301.19 236.38 -14.09 -17.95zm451.87 -167.92c0,180.41 -146.25,326.65 -326.66,326.65 -180.4,0 -326.65,-146.24 -326.65,-326.65 0,-180.41 146.25,-326.65 326.65,-326.65 180.41,0 326.66,146.24 326.66,326.65zm-1341.65 30.2l259.02 -203.28 12.12 15.44 -259.02 203.29 -12.11 -15.44zm0 93.94l349.28 -274.12 16.33 20.81 -349.28 274.12 -16.33 -20.81zm72.41 43.77l301.19 -236.39 14.09 17.96 -301.19 236.38 -14.09 -17.95zm451.87 -167.92c0,180.41 -146.25,326.65 -326.65,326.65 -180.41,0 -326.67,-146.24 -326.67,-326.65 0,-180.41 146.26,-326.65 326.67,-326.65 180.4,0 326.65,146.24 326.65,326.65zm-749.74 550.43c27.53,23.6 108.8,186.14 166.47,306.74 57.69,120.6 91.76,199.25 114.05,204.49 22.29,5.25 32.77,-62.92 52.43,-125.84 19.67,-62.91 48.51,-120.58 110.11,-174.33 61.61,-53.74 155.99,-103.56 249.05,-132.39 93.08,-28.84 184.83,-36.7 273.97,-18.34 89.14,18.34 175.65,62.92 234.64,102.23 58.99,39.33 90.45,73.41 112.73,132.4 22.29,58.99 35.4,142.89 47.19,190.08 11.8,47.18 22.29,57.67 49.81,10.48 27.53,-47.19 72.1,-152.05 102.25,-233.33 30.15,-81.28 45.88,-138.94 70.79,-207.11 24.9,-68.17 58.99,-146.82 78.65,-213.67 19.67,-66.85 24.9,-121.91 15.73,-23.59 -9.17,98.3 -32.76,349.99 -65.54,519.09 -32.77,169.09 -74.71,255.61 -129.77,355.24 -55.05,99.62 -123.22,212.35 -207.12,314.6 -83.88,102.24 -183.51,194 -292.31,232.02 -108.8,38.01 -226.77,22.29 -342.13,-39.33 -115.35,-61.61 -228.08,-169.09 -325.08,-262.16 -97,-93.07 -178.28,-171.72 -221.54,-253 -43.26,-81.27 -48.51,-165.16 -53.74,-245.12 -5.25,-79.96 -10.5,-155.99 -26.22,-251.68 -15.73,-95.69 -41.94,-211.05 -14.42,-187.46zm426.02 525.65c7.86,43.26 31.46,82.58 53.74,121.91 22.28,39.33 43.26,78.65 65.54,110.11 22.28,31.45 45.88,55.06 89.14,66.85 43.26,11.8 106.18,11.8 176.96,10.49 70.79,-1.32 149.43,-3.94 204.49,-7.86 55.06,-3.94 86.52,-9.19 116.66,-38.02 30.15,-28.84 59,-81.27 81.27,-131.08 22.28,-49.81 38.02,-97 46.08,-169.74 8.06,-72.74 8.45,-171.02 -21.46,-239.9 -29.91,-68.88 -90.14,-108.35 -148.01,-120.82 -57.88,-12.46 -113.39,2.07 -188.35,13.28 -74.96,11.2 -169.33,19.07 -249.07,30.21 -79.75,11.14 -144.85,25.56 -178.94,62.26 -34.07,36.7 -37.14,95.7 -42.6,148.78 -5.46,53.08 -13.32,100.27 -5.46,143.53z"/>
 </g>
</svg>
