<?xml version="1.0" encoding="UTF-8"?>
<!DOCTYPE svg PUBLIC "-//W3C//DTD SVG 1.0//EN" "http://www.w3.org/TR/2001/REC-SVG-20010904/DTD/svg10.dtd">
<!-- Creator: CorelDRAW 2019 (64-Bit) -->
<svg xmlns="http://www.w3.org/2000/svg" xml:space="preserve" width="11.6929in" height="8.26772in" version="1.0" style="shape-rendering:geometricPrecision; text-rendering:geometricPrecision; image-rendering:optimizeQuality; fill-rule:evenodd; clip-rule:evenodd"
viewBox="0 0 11692.91 8267.72"
 xmlns:xlink="http://www.w3.org/1999/xlink">
 <defs>
  <style type="text/css">
   <![CDATA[
    .fil0 {fill:#F3C623}
   ]]>
  </style>
 </defs>
 <g id="Layer_x0020_1">
  <metadata id="CorelCorpID_0Corel-Layer"/>
  <path class="fil0" d="M5590.01 5420.04c-445.5,-363.92 -959.94,-854.22 -1405.44,-1407.39 -313.02,-387.2 -589.28,-794.62 -303.88,-1080.67l-2004.07 -2002.98c-292.35,365.01 -939.93,2103.04 1834.83,4948.5 2923.76,2999.03 4809.28,2357.98 5133.83,2020.81l-1954.47 -1956.86c-272.78,272.13 -625.17,29.37 -1300.8,-521.41zm3960.27 1340.83l0 -2.39c0,0 -1523.98,-1522.9 -1524.64,-1523.55 -120.94,-121.38 -314.32,-117.9 -433.96,1.09l-553.6 553.39 1958.6 1960.78c0,0 553.6,-552.52 553.17,-553.17l1.09 -0.65c127.69,-126.38 115.07,-319.11 -0.65,-435.49zm-4965.68 -4532.37l0 -1.09c127.69,-127.69 115.07,-320.63 0,-436.35l0 -1.52c0,0 -1569.01,-1568.36 -1569.45,-1569.01 -120.94,-120.94 -313.67,-117.9 -433.53,0.65l-552.95 555.35 2002.33 2004.06c0.43,0.44 553.6,-551.43 553.6,-552.08z"/>
 </g>
</svg>
